<svg width="100%" height="100%" viewBox="0 0 178 63" fill="none" xmlns="http://www.w3.org/2000/svg">
<path d="M7.70898 23.4834V32H2.72852V7.82812H12.1582C13.9733 7.82812 15.5671 8.16016 16.9395 8.82422C18.3229 9.48828 19.3854 10.4346 20.127 11.6631C20.8685 12.8805 21.2393 14.2695 21.2393 15.8301C21.2393 18.1986 20.4258 20.069 18.7988 21.4414C17.1829 22.8027 14.9417 23.4834 12.0752 23.4834H7.70898ZM7.70898 19.4492H12.1582C13.4753 19.4492 14.4769 19.1393 15.1631 18.5195C15.8604 17.8997 16.209 17.0143 16.209 15.8633C16.209 14.679 15.8604 13.7217 15.1631 12.9912C14.4658 12.2607 13.5029 11.8844 12.2744 11.8623H7.70898V19.4492ZM29.6562 27.999H40.2314V32H24.6758V7.82812H29.6562V27.999ZM57.082 27.0195H48.3496L46.6895 32H41.3936L50.3916 7.82812H55.0068L64.0547 32H58.7588L57.082 27.0195ZM49.6943 22.9854H55.7373L52.6992 13.9375L49.6943 22.9854ZM85.9688 32H80.9883L71.293 16.0957V32H66.3125V7.82812H71.293L81.0049 23.7656V7.82812H85.9688V32ZM108.016 11.8623H100.611V32H95.6309V11.8623H88.3262V7.82812H108.016V11.8623Z" fill="#86A687"/>
<path d="M125.414 21.5244H115.852V27.999H127.074V32H110.871V7.82812H127.041V11.8623H115.852V17.623H125.414V21.5244ZM138.944 23.1514H134.977V32H129.996V7.82812H138.978C141.833 7.82812 144.035 8.46452 145.585 9.7373C147.134 11.0101 147.909 12.8086 147.909 15.1328C147.909 16.7819 147.549 18.1598 146.83 19.2666C146.122 20.3623 145.043 21.2367 143.593 21.8896L148.822 31.7676V32H143.477L138.944 23.1514ZM134.977 19.1172H138.994C140.245 19.1172 141.213 18.8018 141.899 18.1709C142.586 17.529 142.929 16.6491 142.929 15.5312C142.929 14.3913 142.602 13.4948 141.949 12.8418C141.307 12.1888 140.317 11.8623 138.978 11.8623H134.977V19.1172ZM165.357 27.0195H156.625L154.965 32H149.669L158.667 7.82812H163.282L172.33 32H167.034L165.357 27.0195ZM157.97 22.9854H164.013L160.975 13.9375L157.97 22.9854Z" fill="#C5D1C4"/>
<path d="M87.916 38.8281L94.125 56.3594L100.301 38.8281H106.842V63H101.845V56.3926L102.343 44.9873L95.8184 63H92.3984L85.8906 45.0039L86.3887 56.3926V63H81.4082V38.8281H87.916ZM125.734 52.5244H116.172V58.999H127.395V63H111.191V38.8281H127.361V42.8623H116.172V48.623H125.734V52.5244ZM139.265 54.1514H135.297V63H130.316V38.8281H139.298C142.153 38.8281 144.356 39.4645 145.905 40.7373C147.455 42.0101 148.229 43.8086 148.229 46.1328C148.229 47.7819 147.87 49.1598 147.15 50.2666C146.442 51.3623 145.363 52.2367 143.913 52.8896L149.143 62.7676V63H143.797L139.265 54.1514ZM135.297 50.1172H139.314C140.565 50.1172 141.534 49.8018 142.22 49.1709C142.906 48.529 143.249 47.6491 143.249 46.5312C143.249 45.3913 142.923 44.4948 142.27 43.8418C141.628 43.1888 140.637 42.8623 139.298 42.8623H135.297V50.1172ZM165.678 58.0195H156.945L155.285 63H149.989L158.987 38.8281H163.603L172.65 63H167.354L165.678 58.0195ZM158.29 53.9854H164.333L161.295 44.9375L158.29 53.9854Z" fill="#86A687"/>
</svg>
